name ./resultDataOpenSim/trcMotMarkerGrf/sub10/grf-05-05.mot
datacolumns 19
datarows 20
range 1.03200000 1.10800000
endheader

                time	     ground_force_vx	     ground_force_vy	     ground_force_vz	     ground_force_px	     ground_force_py	     ground_force_pz	   l_ground_force_vx	   l_ground_force_vy	   l_ground_force_vz	   l_ground_force_px	   l_ground_force_py	   l_ground_force_pz	     ground_torque_x	     ground_torque_y	     ground_torque_z	   l_ground_torque_x	   l_ground_torque_y	   l_ground_torque_z	
          1.03200000	          0.00000000	          0.00000000	          0.00000000	          0.00000000	          0.00000000	          0.00000000	         -0.66988739	        221.58287792	         19.65110809	         -0.00135150	         -0.10000000	         -0.09957600	          0.00000000	          0.00000000	          0.00000000	          0.00000000	         -0.38492728	          0.00000000	
          1.03600000	          0.00000000	          0.00000000	          0.00000000	          0.00000000	          0.00000000	          0.00000000	          1.53708420	        220.90533512	         20.01517433	         -0.00118917	         -0.10000000	         -0.09929020	          0.00000000	          0.00000000	          0.00000000	          0.00000000	         -0.45034644	          0.00000000	
          1.04000000	          0.00000000	          0.00000000	          0.00000000	          0.00000000	          0.00000000	          0.00000000	          3.87009837	        221.54232056	         20.48142047	         -0.00145258	         -0.10000000	         -0.09905585	          0.00000000	          0.00000000	          0.00000000	          0.00000000	         -0.52362132	          0.00000000	
          1.04400000	          0.00000000	          0.00000000	          0.00000000	          0.00000000	          0.00000000	          0.00000000	          6.26253664	        223.40497102	         21.04148155	         -0.00207360	         -0.10000000	         -0.09888131	          0.00000000	          0.00000000	          0.00000000	          0.00000000	         -0.60833747	          0.00000000	
          1.04800000	          0.00000000	          0.00000000	          0.00000000	          0.00000000	          0.00000000	          0.00000000	          8.62403925	        226.43651587	         21.65998349	         -0.00288885	         -0.10000000	         -0.09876147	          0.00000000	          0.00000000	          0.00000000	          0.00000000	         -0.70843792	          0.00000000	
          1.05200000	          0.00000000	          0.00000000	          0.00000000	          0.00000000	          0.00000000	          0.00000000	         10.85924977	        230.63685998	         22.28564092	         -0.00368975	         -0.10000000	         -0.09865625	          0.00000000	          0.00000000	          0.00000000	          0.00000000	         -0.82784752	          0.00000000	
          1.05600000	          0.00000000	          0.00000000	          0.00000000	          0.00000000	          0.00000000	          0.00000000	         12.89761249	        236.06236178	         22.87570366	         -0.00428614	         -0.10000000	         -0.09848362	          0.00000000	          0.00000000	          0.00000000	          0.00000000	         -0.96990257	          0.00000000	
          1.06000000	          0.00000000	          0.00000000	          0.00000000	          0.00000000	          0.00000000	          0.00000000	         14.70594308	        242.80800379	         23.41141113	         -0.00458362	         -0.10000000	         -0.09816478	          0.00000000	          0.00000000	          0.00000000	          0.00000000	         -1.13686675	          0.00000000	
          1.06400000	          0.00000000	          0.00000000	          0.00000000	          0.00000000	          0.00000000	          0.00000000	         16.28778962	        250.98076098	         23.89618245	         -0.00462726	         -0.10000000	         -0.09770802	          0.00000000	          0.00000000	          0.00000000	          0.00000000	         -1.32979486	          0.00000000	
          1.06800000	          0.00000000	          0.00000000	          0.00000000	          0.00000000	          0.00000000	          0.00000000	         17.68157914	        260.68379483	         24.33980219	         -0.00454896	         -0.10000000	         -0.09720273	          0.00000000	          0.00000000	          0.00000000	          0.00000000	         -1.54881819	          0.00000000	
          1.07200000	          0.00000000	          0.00000000	          0.00000000	          0.00000000	          0.00000000	          0.00000000	         18.95325729	        272.00781028	         24.73581264	         -0.00444915	         -0.10000000	         -0.09669828	          0.00000000	          0.00000000	          0.00000000	          0.00000000	         -1.79373051	          0.00000000	
          1.07600000	          0.00000000	          0.00000000	          0.00000000	          0.00000000	          0.00000000	          0.00000000	         20.18091173	        285.00743158	         25.04805533	         -0.00435395	         -0.10000000	         -0.09616247	          0.00000000	          0.00000000	          0.00000000	          0.00000000	         -2.06461422	          0.00000000	
          1.08000000	          0.00000000	          0.00000000	          0.00000000	          0.00000000	          0.00000000	          0.00000000	         21.43881262	        299.70440192	         25.22473898	         -0.00425431	         -0.10000000	         -0.09555922	          0.00000000	          0.00000000	          0.00000000	          0.00000000	         -2.36219478	          0.00000000	
          1.08400000	          0.00000000	          0.00000000	          0.00000000	          0.00000000	          0.00000000	          0.00000000	         22.78451501	        316.14418295	         25.23538663	         -0.00410083	         -0.10000000	         -0.09487557	          0.00000000	          0.00000000	          0.00000000	          0.00000000	         -2.68770268	          0.00000000	
          1.08800000	          0.00000000	          0.00000000	          0.00000000	          0.00000000	          0.00000000	          0.00000000	         24.24749499	        334.41328989	         25.09587629	         -0.00387434	         -0.10000000	         -0.09410458	          0.00000000	          0.00000000	          0.00000000	          0.00000000	         -3.04225667	          0.00000000	
          1.09200000	          0.00000000	          0.00000000	          0.00000000	          0.00000000	          0.00000000	          0.00000000	         25.83177309	        354.57319308	         24.85522273	         -0.00359551	         -0.10000000	         -0.09325689	          0.00000000	          0.00000000	          0.00000000	          0.00000000	         -3.42606467	          0.00000000	
          1.09600000	          0.00000000	          0.00000000	          0.00000000	          0.00000000	          0.00000000	          0.00000000	         27.54427515	        376.61524008	         24.55558617	         -0.00324730	         -0.10000000	         -0.09235829	          0.00000000	          0.00000000	          0.00000000	          0.00000000	         -3.83789849	          0.00000000	
          1.10000000	          0.00000000	          0.00000000	          0.00000000	          0.00000000	          0.00000000	          0.00000000	         29.42310934	        400.47554727	         24.20297977	         -0.00283446	         -0.10000000	         -0.09143258	          0.00000000	          0.00000000	          0.00000000	          0.00000000	         -4.27514898	          0.00000000	
          1.10400000	          0.00000000	          0.00000000	          0.00000000	          0.00000000	          0.00000000	          0.00000000	         31.53506124	        426.02219573	         23.78271207	         -0.00241914	         -0.10000000	         -0.09052014	          0.00000000	          0.00000000	          0.00000000	          0.00000000	         -4.73435487	          0.00000000	
          1.10800000	          0.00000000	          0.00000000	          0.00000000	          0.00000000	          0.00000000	          0.00000000	         33.95517699	        453.02695095	         23.30329554	         -0.00210014	         -0.10000000	         -0.08967964	          0.00000000	          0.00000000	          0.00000000	          0.00000000	         -5.21178875	          0.00000000	
